<svg enable-background="new 0 0 512 512" viewBox="0 0 512 512" xmlns="http://www.w3.org/2000/svg"><path d="m497.638 77.757c-159.163-39.106-318.326 43.539-477.489 8.034-9.83-2.192-19.149 5.331-19.149 15.403v97.741 113.586 101.445c0 7.251 4.94 13.588 11.981 15.318 159.163 39.106 318.326-43.539 477.489-8.034 9.83 2.193 19.149-5.331 19.149-15.403v-93.327c0-37.862 0-75.724 0-113.586v-105.859c0-7.25-4.939-13.588-11.981-15.318z" fill="#ff473e"/><path d="m65.274 198.432-20.177 10.608c-2.992 1.573-6.489-.968-5.918-4.299l3.853-22.467c.227-1.323-.212-2.673-1.173-3.61l-16.323-15.911c-2.421-2.36-1.085-6.47 2.26-6.957l22.558-3.278c1.328-.193 2.477-1.027 3.071-2.231l10.088-20.441c1.496-3.031 5.819-3.031 7.315 0l10.088 20.441c.594 1.204 1.742 2.038 3.071 2.231l22.558 3.278c3.345.486 4.681 4.597 2.26 6.957l-16.323 15.911c-.961.937-1.4 2.287-1.173 3.61l3.853 22.467c.571 3.332-2.926 5.872-5.918 4.299l-20.174-10.608c-1.188-.625-2.607-.625-3.796 0zm94.258-67.058 5.24 2.755c.777.408 1.685-.251 1.537-1.116l-1.001-5.834c-.059-.344.055-.694.305-.937l4.239-4.132c.629-.613.282-1.68-.587-1.807l-5.858-.851c-.345-.05-.643-.267-.797-.579l-2.62-5.308c-.388-.787-1.511-.787-1.899 0l-2.62 5.308c-.154.313-.452.529-.797.579l-5.858.851c-.869.126-1.216 1.194-.587 1.807l4.239 4.132c.25.243.364.594.305.937l-1.001 5.834c-.148.865.76 1.525 1.537 1.116l5.24-2.755c.306-.162.675-.162.983 0zm31.467 32.524 5.24 2.755c.777.408 1.685-.251 1.537-1.116l-1.001-5.834c-.059-.344.055-.694.305-.937l4.239-4.132c.629-.613.282-1.68-.587-1.807l-5.858-.851c-.345-.05-.643-.267-.797-.579l-2.62-5.308c-.389-.787-1.511-.787-1.899 0l-2.62 5.308c-.154.313-.452.529-.797.579l-5.858.851c-.869.126-1.216 1.194-.587 1.807l4.239 4.132c.25.243.364.594.305.937l-1.001 5.834c-.148.865.76 1.525 1.537 1.116l5.24-2.755c.305-.162.674-.162.983 0zm0 47.523 5.24 2.755c.777.408 1.685-.251 1.537-1.116l-1.001-5.834c-.059-.344.055-.694.305-.937l4.239-4.132c.629-.613.282-1.68-.587-1.807l-5.858-.851c-.345-.05-.643-.267-.797-.579l-2.62-5.308c-.389-.787-1.511-.787-1.899 0l-2.62 5.308c-.154.313-.452.529-.797.579l-5.858.851c-.869.126-1.216 1.194-.587 1.807l4.239 4.132c.25.243.364.594.305.937l-1.001 5.834c-.148.865.76 1.525 1.537 1.116l5.24-2.755c.305-.162.674-.162.983 0zm-31.467 32.524 5.24 2.755c.777.408 1.685-.251 1.537-1.116l-1.001-5.834c-.059-.344.055-.694.305-.937l4.239-4.132c.629-.613.282-1.68-.587-1.807l-5.858-.851c-.345-.05-.643-.267-.797-.579l-2.62-5.308c-.388-.787-1.511-.787-1.899 0l-2.62 5.308c-.154.313-.452.529-.797.579l-5.858.851c-.869.126-1.216 1.194-.587 1.807l4.239 4.132c.25.243.364.594.305.937l-1.001 5.834c-.148.865.76 1.525 1.537 1.116l5.24-2.755c.306-.162.675-.162.983 0z" fill="#ffd469"/></svg>