<svg height="24" viewBox="0 0 24 24" width="24" xmlns="http://www.w3.org/2000/svg"><path d="m21.986 9.74c-.002-.028-.005-.058-.008-.088-.176-2.608-2.363-4.652-4.978-4.652h-10c-2.679 0-4.858 2.076-4.987 4.737-.01.079-.013.161-.013.253v6.51c0 .925.373 1.828 1.022 2.476.65.651 1.553 1.024 2.478 1.024 1.8 0 2.504-1 3.5-3 .146-.292.992-2 3-2 1.996 0 2.853 1.707 3 2 1.004 2 1.7 3 3.5 3 .925 0 1.828-.373 2.476-1.022.651-.65 1.024-1.553 1.024-2.478v-6.5c0-.095-.004-.18-.014-.26zm-14.986 2.291c-1.105 0-2-.895-2-2s.895-2 2-2 2 .895 2 2-.895 2-2 2zm10-5c.553 0 1 .447 1 1s-.447 1-1 1-1-.447-1-1 .447-1 1-1zm-2 4c-.553 0-1-.447-1-1s.447-1 1-1 1 .447 1 1-.447 1-1 1zm2 2c-.553 0-1-.447-1-1s.447-1 1-1 1 .447 1 1-.447 1-1 1zm2-2c-.553 0-1-.447-1-1s.447-1 1-1 1 .447 1 1-.447 1-1 1z"/></svg>